# xmcd
#
# Track frame offsets: 
#        150
#        16216
#        34554
#        51722
#        66444
#        81258
#        99373
#        114033
#        128118
#        144808
#        162013
#        179516
#        194152
#        209888
#        220344
#        233914
#        247480
#        260747
#        273958
#        289851
#
# Disc length: 4092 seconds
#
# Revision: 2
# Processed by: cddbd v1.5.2PL0 Copyright (c) Steve Scherf et al.
# Submitted via: ExactAudioCopyFreeDBPlugin 1.0
#
DISCID=3a0ffa14
DTITLE=Crystal Gayle - 100 Hits Legends [CD 1)
DYEAR=2011
DGENRE=Country
TTITLE0=It's Like We Never Said Goodbye
TTITLE1=Half the Way
TTITLE2=Too many lovers
TTITLE3=If You Ever Change Your Mind
TTITLE4=Blue Side
TTITLE5=Take It Easy
TTITLE6=Livin' In These Troubled Times
TTITLE7=Keepin' Power
TTITLE8=Dancing The Night Away
TTITLE9=Other Side Of Me
TTITLE10=Ain't No Love In The Heart Of The City
TTITLE11=Same Old Story
TTITLE12=Ain't No Sunshine
TTITLE13=Crying In The Rain
TTITLE14=Don't Go My Love
TTITLE15=Little Bit of the Rain
TTITLE16=I Just Can't Leave Your Love Alone
TTITLE17=What A Little Moonlight Can Do
TTITLE18=You've Almost Got Me Believin'
TTITLE19=Miss the Mississippi and You
EXTD=Disc 1 of 5
EXTT0=
EXTT1=
EXTT2=
EXTT3=
EXTT4=
EXTT5=
EXTT6=
EXTT7=
EXTT8=
EXTT9=
EXTT10=
EXTT11=
EXTT12=
EXTT13=
EXTT14=
EXTT15=
EXTT16=
EXTT17=
EXTT18=
EXTT19=
PLAYORDER=
